<?xml version="1.0" encoding="UTF-8" standalone="no"?>
<svg
   xmlns:dc="http://purl.org/dc/elements/1.1/"
   xmlns:cc="http://creativecommons.org/ns#"
   xmlns:rdf="http://www.w3.org/1999/02/22-rdf-syntax-ns#"
   xmlns:svg="http://www.w3.org/2000/svg"
   xmlns="http://www.w3.org/2000/svg"
   viewBox="0 0 797.44 290.56"
   height="290.56"
   width="797.44"
   xml:space="preserve"
   id="svg2"
   version="1.1"><metadata
     id="metadata8"><rdf:RDF><cc:Work
         rdf:about=""><dc:format>image/svg+xml</dc:format><dc:type
           rdf:resource="http://purl.org/dc/dcmitype/StillImage" /></cc:Work></rdf:RDF></metadata><defs
     id="defs6"><clipPath
       id="clipPath18"
       clipPathUnits="userSpaceOnUse"><path
         style="clip-rule:evenodd"
         id="path16"
         d="M 0,0 H 2491.6665 V 906.33252 H 0 Z" /></clipPath><clipPath
       id="clipPath30"
       clipPathUnits="userSpaceOnUse"><path
         style="clip-rule:evenodd"
         id="path28"
         d="M 0,0 H 2491.6665 V 906.33252 H 0 Z" /></clipPath></defs><g
     transform="matrix(0.31999998,0,0,0.31999998,0,7.264e-6)"
     id="g10"><g
       id="g12"><g
         clip-path="url(#clipPath18)"
         id="g14"><g
           transform="scale(2.9911964)"
           id="g20"><path
             id="path22"
             style="fill:#ffffff;fill-opacity:1;fill-rule:nonzero;stroke:none"
             d="M 0,0 H 833 V 303 H 0 Z" /></g></g></g><g
       id="g24"><g
         clip-path="url(#clipPath30)"
         id="g26"><g
           transform="scale(2.9911964)"
           id="g32"><text
             id="text36"
             style="font-variant:normal;font-weight:normal;font-size:25px;font-family:Helvetica;-inkscape-font-specification:Helvetica;writing-mode:lr-tb;fill:#000000;fill-opacity:1;fill-rule:nonzero;stroke:none"
             transform="translate(76.375,160)"><tspan
               id="tspan34"
               y="0"
               x="0 6.9458008 13.891602 20.837402 27.783203 34.729004 48.632812 56.958008 63.903809 77.807617 91.711426 98.657227 112.56104 118.11523 132.01904 137.57324 151.47705 165.38086 172.32666 186.23047 200.13428 212.63428 218.18848 232.09229 245.99609 252.94189 258.49609 264.05029 276.55029 290.4541 298.7793">... for obtaining bovine liver </tspan></text>
<text
             id="text40"
             style="font-variant:normal;font-weight:bold;font-size:25px;font-family:Helvetica;-inkscape-font-specification:Helvetica-Bold;writing-mode:lr-tb;fill:#000000;fill-opacity:1;fill-rule:nonzero;stroke:none"
             transform="translate(382.09375,160)"><tspan
               id="tspan38"
               y="0"
               x="0 18.054199 36.108398">DHF</tspan></text>
<text
             id="text44"
             style="font-variant:normal;font-weight:normal;font-size:25px;font-family:Helvetica;-inkscape-font-specification:Helvetica;writing-mode:lr-tb;fill:#000000;fill-opacity:1;fill-rule:nonzero;stroke:none"
             transform="translate(440.41455,160)"><tspan
               id="tspan42"
               y="0"
               x="0 8.3251953 22.229004 36.132812 50.036621 62.536621 69.482422 83.38623 95.88623 109.79004 116.73584 122.29004 136.19385 143.13965 157.04346 162.59766 176.50146 190.40527 197.35107 209.85107 215.40527 229.30908 234.86328 248.76709 255.71289 269.6167 283.52051 297.42432 304.37012 311.31592 318.26172">reductase in high yield and ...</tspan></text>
<text
             id="text48"
             style="font-variant:normal;font-weight:normal;font-size:25px;font-family:Helvetica;-inkscape-font-specification:Helvetica;writing-mode:lr-tb;fill:#000000;fill-opacity:1;fill-rule:nonzero;stroke:none"
             transform="translate(15.953125,80)"><tspan
               id="tspan46"
               y="0"
               x="0 6.9458008 13.891602 20.837402 27.783203 34.729004 48.632812 56.958008 63.903809 77.807617 91.711426 98.657227 112.56104 118.11523 132.01904 137.57324 151.47705 165.38086 172.32666 186.23047 200.13428 212.63428 218.18848 232.09229 245.99609 252.94189 258.49609 264.05029 276.55029 290.4541 298.7793 305.7251">... for obtaining bovine liver  </tspan></text>
<text
             id="text52"
             style="font-variant:normal;font-weight:bold;font-size:25px;font-family:Helvetica;-inkscape-font-specification:Helvetica-Bold;writing-mode:lr-tb;fill:#000000;fill-opacity:1;fill-rule:nonzero;stroke:none"
             transform="translate(328.60938,80)"><tspan
               id="tspan50"
               y="0"
               x="0 15.270996 22.216797 37.487793 51.391602 66.662598 76.391602 91.662598 99.987793 115.25879 122.20459 136.1084 144.43359 158.3374">dihydrofolate </tspan></text>
<text
             id="text56"
             style="font-variant:normal;font-weight:normal;font-size:25px;font-family:Helvetica;-inkscape-font-specification:Helvetica;writing-mode:lr-tb;fill:#000000;fill-opacity:1;fill-rule:nonzero;stroke:none"
             transform="translate(493.89063,80)"><tspan
               id="tspan54"
               y="0"
               x="0 6.9458008 15.270996 29.174805 43.078613 56.982422 69.482422 76.428223 90.332031 102.83203 116.73584 123.68164 129.23584 143.13965 150.08545 163.98926 169.54346 183.44727 197.35107 204.29688 216.79688 222.35107 236.25488 241.80908 255.71289 262.65869 276.5625 290.46631 304.37012 311.31592 318.26172 325.20752"> reductase in high yield and ...</tspan></text>
<text
             id="text60"
             style="font-variant:normal;font-weight:bold;font-size:25px;font-family:Helvetica;-inkscape-font-specification:Helvetica-Bold;writing-mode:lr-tb;fill:#7ea6e0;fill-opacity:1;fill-rule:nonzero;stroke:none"
             transform="translate(8.90625,40)"><tspan
               id="tspan58"
               y="0"
               x="0 19.445801 29.174805 36.120605 51.391602 58.337402 73.608398 87.512207 94.458008 101.40381 109.729 123.63281 137.53662 145.86182">Original text:</tspan></text>
</g><g
           transform="matrix(2.9911964,0,0,2.9911964,1.4955982,1.4955982)"
           id="g62"><path
             id="path64"
             style="fill:none;stroke:#67ab9f;stroke-width:1;stroke-linecap:butt;stroke-linejoin:miter;stroke-miterlimit:10;stroke-dasharray:none;stroke-opacity:1"
             d="m 405.5,88.5 0.38,32.4" /><path
             id="path66"
             style="fill:#67ab9f;fill-opacity:1;fill-rule:nonzero;stroke:none"
             d="m 405.95999,127.65 -4.60998,-8.95 4.52999,2.2 4.47001,-2.31 z" /><path
             id="path68"
             style="fill:none;stroke:#67ab9f;stroke-width:1;stroke-linecap:butt;stroke-linejoin:miter;stroke-miterlimit:10;stroke-dasharray:none;stroke-opacity:1"
             d="m 405.95999,127.65 -4.60998,-8.95 4.52999,2.2 4.47001,-2.31 z" /><path
             id="path70"
             style="fill:none;stroke:#67ab9f;stroke-width:1;stroke-linecap:butt;stroke-linejoin:miter;stroke-miterlimit:10;stroke-dasharray:none;stroke-opacity:1"
             d="m 326.25,53.5 h 159.5 c 0.69617,0 1.36584,0.133209 2.00903,0.399628 0.64319,0.266422 1.21094,0.645775 1.70325,1.138061 0.49228,0.492283 0.87161,1.060021 1.13803,1.703221 0.26645,0.643199 0.39966,1.312896 0.39969,2.00909 v 24.5 c -3e-5,0.69619 -0.13324,1.365883 -0.39966,2.009079 -0.26645,0.643196 -0.64578,1.210937 -1.13806,1.703224 -0.49231,0.492287 -1.06006,0.871636 -1.70325,1.138054 -0.64319,0.266426 -1.31286,0.399635 -2.00903,0.399643 h -159.5 c -0.6962,-8e-6 -1.36591,-0.133217 -2.00912,-0.399643 -0.64322,-0.266418 -1.21097,-0.645767 -1.70322,-1.138054 -0.49231,-0.492287 -0.87167,-1.060028 -1.13809,-1.703224 C 321.13318,84.615883 320.99997,83.94619 321,83.25 v -24.5 c -3e-5,-0.696194 0.13318,-1.365891 0.39957,-2.00909 0.26642,-0.6432 0.64578,-1.210938 1.13809,-1.703221 0.49225,-0.492286 1.06,-0.871639 1.70322,-1.138061 C 324.88409,53.633209 325.5538,53.5 326.25,53.5 Z" /><path
             id="path72"
             style="fill:none;stroke:#67ab9f;stroke-width:1;stroke-linecap:butt;stroke-linejoin:miter;stroke-miterlimit:10;stroke-dasharray:none;stroke-opacity:1"
             d="m 381.25,133.5 h 49.5 c 0.69617,0 1.36584,0.13321 2.00906,0.39961 0.64319,0.26644 1.21094,0.64578 1.70325,1.13806 0.49228,0.49228 0.87161,1.06002 1.13803,1.70322 C 435.86679,137.38409 436,138.0538 436,138.75 v 24.5 c 0,0.69618 -0.13321,1.36586 -0.39966,2.00906 -0.26642,0.64321 -0.64575,1.21094 -1.13803,1.70324 -0.49231,0.49227 -1.06006,0.87162 -1.70325,1.13804 -0.64322,0.26644 -1.31289,0.39964 -2.00906,0.39966 h -49.5 c -0.69623,-2e-5 -1.36594,-0.13322 -2.00916,-0.39966 -0.64318,-0.26642 -1.2109,-0.64577 -1.70318,-1.13804 -0.49228,-0.4923 -0.87164,-1.06003 -1.13806,-1.70324 -0.26645,-0.6432 -0.39963,-1.31288 -0.3996,-2.00906 v -24.5 c -3e-5,-0.6962 0.13315,-1.36591 0.39957,-2.00911 0.26645,-0.6432 0.64581,-1.21094 1.13809,-1.70322 0.49228,-0.49228 1.06,-0.87162 1.70318,-1.13806 0.64322,-0.2664 1.31293,-0.39961 2.00916,-0.39961 z" /></g><g
           transform="scale(2.9911964)"
           id="g74"><text
             id="text78"
             style="font-variant:normal;font-weight:bold;font-size:25px;font-family:Helvetica;-inkscape-font-specification:Helvetica-Bold;writing-mode:lr-tb;fill:#ea6b66;fill-opacity:1;fill-rule:nonzero;stroke:none"
             transform="translate(6.25,128)"><tspan
               id="tspan76"
               y="0"
               x="0 16.674805 30.578613 52.807617 68.078613 75.024414 88.928223 95.874023 102.81982 118.09082 125.03662 145.86182 159.76562 177.81982 195.87402 211.14502">Sample in MeDAL:</tspan></text>
<text
             id="text82"
             style="font-variant:normal;font-weight:bold;font-size:25px;font-family:Helvetica;-inkscape-font-specification:Helvetica-Bold;writing-mode:lr-tb;fill:#ff8000;fill-opacity:1;fill-rule:nonzero;stroke:none"
             transform="translate(9.859375,210)"><tspan
               id="tspan80"
               y="0"
               x="0 18.054199 25 38.903809 52.807617 75.036621 90.307617 97.253418 112.52441 127.79541 141.69922 150.02441 163.92822">Disambiguate:</tspan></text>
<text
             id="text86"
             style="font-variant:normal;font-weight:normal;font-size:25px;font-family:Helvetica;-inkscape-font-specification:Helvetica;writing-mode:lr-tb;fill:#000000;fill-opacity:1;fill-rule:nonzero;stroke:none"
             transform="translate(15.953125,293)"><tspan
               id="tspan84"
               y="0"
               x="0 6.9458008 13.891602 20.837402 27.783203 34.729004 48.632812 56.958008 63.903809 77.807617 91.711426 98.657227 112.56104 118.11523 132.01904 137.57324 151.47705 165.38086 172.32666 186.23047 200.13428 212.63428 218.18848 232.09229 245.99609 252.94189 258.49609 264.05029 276.55029 290.4541 298.7793 305.7251">... for obtaining bovine liver  </tspan></text>
<text
             id="text90"
             style="font-variant:normal;font-weight:bold;font-size:25px;font-family:Helvetica;-inkscape-font-specification:Helvetica-Bold;writing-mode:lr-tb;fill:#000000;fill-opacity:1;fill-rule:nonzero;stroke:none"
             transform="translate(328.60938,293)"><tspan
               id="tspan88"
               y="0"
               x="0 15.270996 22.216797 37.487793 51.391602 66.662598 76.391602 91.662598 99.987793 115.25879 122.20459 136.1084 144.43359 158.3374">dihydrofolate </tspan></text>
<text
             id="text94"
             style="font-variant:normal;font-weight:normal;font-size:25px;font-family:Helvetica;-inkscape-font-specification:Helvetica;writing-mode:lr-tb;fill:#000000;fill-opacity:1;fill-rule:nonzero;stroke:none"
             transform="translate(493.89063,293)"><tspan
               id="tspan92"
               y="0"
               x="0 6.9458008 15.270996 29.174805 43.078613 56.982422 69.482422 76.428223 90.332031 102.83203 116.73584 123.68164 129.23584 143.13965 150.08545 163.98926 169.54346 183.44727 197.35107 204.29688 216.79688 222.35107 236.25488 241.80908 255.71289 262.65869 276.5625 290.46631 304.37012 311.31592 318.26172 325.20752"> reductase in high yield and ...</tspan></text>
</g><g
           transform="matrix(2.9911964,0,0,2.9911964,1.4955982,1.4955982)"
           id="g96"><path
             id="path98"
             style="fill:none;stroke:#67ab9f;stroke-width:1;stroke-linecap:butt;stroke-linejoin:miter;stroke-miterlimit:10;stroke-dasharray:none;stroke-opacity:1"
             d="m 326.25,266 h 159.5 c 0.69617,0 1.36584,0.13321 2.00903,0.3996 0.64319,0.26642 1.21094,0.64578 1.70325,1.13806 0.49228,0.49228 0.87161,1.06 1.13803,1.70322 0.26645,0.64318 0.39966,1.31289 0.39969,2.00912 v 24.5 c -3e-5,0.69617 -0.13324,1.36584 -0.39966,2.00903 -0.26645,0.64322 -0.64578,1.21097 -1.13806,1.70325 -0.49231,0.49228 -1.06006,0.87161 -1.70325,1.13803 -0.64319,0.26645 -1.31286,0.39966 -2.00903,0.39969 h -159.5 c -0.6962,-3e-5 -1.36591,-0.13324 -2.00912,-0.39969 -0.64322,-0.26642 -1.21097,-0.64575 -1.70322,-1.13803 -0.49231,-0.49228 -0.87167,-1.06003 -1.13809,-1.70325 -0.26639,-0.64319 -0.3996,-1.31286 -0.39957,-2.00903 v -24.5 c -3e-5,-0.69623 0.13318,-1.36594 0.39957,-2.00912 0.26642,-0.64322 0.64578,-1.21094 1.13809,-1.70322 0.49225,-0.49228 1.06,-0.87164 1.70322,-1.13803 C 324.88409,266.13321 325.5538,266 326.25,266 Z" /><path
             id="path100"
             style="fill:none;stroke:#67ab9f;stroke-width:1;stroke-linecap:butt;stroke-linejoin:miter;stroke-miterlimit:10;stroke-dasharray:none;stroke-opacity:1"
             d="m 406,169 v 86.89999" /><path
             id="path102"
             style="fill:#67ab9f;fill-opacity:1;fill-rule:nonzero;stroke:none"
             d="m 406,262.64999 -4.5,-9 4.5,2.25 4.5,-2.25 z" /><path
             id="path104"
             style="fill:none;stroke:#67ab9f;stroke-width:1;stroke-linecap:butt;stroke-linejoin:miter;stroke-miterlimit:10;stroke-dasharray:none;stroke-opacity:1"
             d="m 406,262.64999 -4.5,-9 4.5,2.25 4.5,-2.25 z" /></g><g
           transform="scale(2.9911964)"
           id="g106"><text
             id="text110"
             style="font-variant:normal;font-weight:normal;font-size:23px;font-family:Helvetica;-inkscape-font-specification:Helvetica;writing-mode:lr-tb;fill:#666666;fill-opacity:1;fill-rule:nonzero;stroke:none"
             transform="translate(526.75,209)"><tspan
               id="tspan108"
               y="0"
               x="0 12.791504 25.583008 38.374512 51.166016 63.95752 76.749023 83.13916 95.930664 108.72217 127.88135 140.67285 148.33203 155.99121 168.78271 181.57422 194.36572 199.47559 210.97559 217.36572 223.75586 236.54736 248.04736 260.83887">dengue hemorrhagic fever</tspan></text>
<text
             id="text114"
             style="font-variant:normal;font-weight:normal;font-size:23px;font-family:Helvetica;-inkscape-font-specification:Helvetica;writing-mode:lr-tb;fill:#666666;fill-opacity:1;fill-rule:nonzero;stroke:none"
             transform="translate(186.39063,239)"><tspan
               id="tspan112"
               y="0"
               x="0 12.791504 17.901367 30.692871 42.192871 54.984375 62.643555 75.435059 86.935059 98.435059 104.8252 117.6167 136.77588 149.56738 157.22656 170.01807 176.4082">dihydroxyfumarate</tspan></text>
</g><g
           transform="matrix(2.9911964,0,0,2.9911964,1.4955982,1.4955982)"
           id="g116"><path
             id="path118"
             style="fill:#67ab9f;fill-opacity:1;fill-rule:nonzero;stroke:none"
             d="m 391.77856,169.78214 -7.69278,4.67132 -1.55712,-2.56427 7.69278,-4.67133 m -13.8284,11.90693 -7.69278,4.67132 -1.55713,-2.56427 7.69278,-4.67132 m -13.82843,11.90692 -7.69275,4.67132 -1.55713,-2.56427 7.69275,-4.67132 m -13.8284,11.90692 -7.69278,4.67132 -1.55713,-2.56427 7.69278,-4.67132" /><path
             id="path120"
             style="fill:#67ab9f;fill-opacity:1;fill-rule:nonzero;stroke:none"
             d="m 323.87,209.25999 5.35,-8.51998 0.42001,5.01998 4.25998,2.68001 z" /><path
             id="path122"
             style="fill:none;stroke:#67ab9f;stroke-width:1;stroke-linecap:butt;stroke-linejoin:miter;stroke-miterlimit:10;stroke-dasharray:none;stroke-opacity:1"
             d="m 323.87,209.25999 5.35,-8.51998 0.42001,5.01998 4.25998,2.68001 z" /><path
             id="path124"
             style="fill:#67ab9f;fill-opacity:1;fill-rule:nonzero;stroke:none"
             d="m 421.50946,167.08917 8.46497,3.05686 -1.01892,2.82165 -8.46497,-3.05685 m 17.94885,3.29205 8.46497,3.05686 -1.01892,2.82165 -8.46497,-3.05685 m 17.94885,3.29205 8.46497,3.05684 -1.01892,2.82165 -8.46497,-3.05684 m 17.94886,3.29204 8.46496,3.05686 -1.01892,2.82165 -8.46497,-3.05685 m 17.94886,3.29205 8.46496,3.05686 -1.01892,2.82165 -8.46496,-3.05685" /><path
             id="path126"
             style="fill:#67ab9f;fill-opacity:1;fill-rule:nonzero;stroke:none"
             d="m 507.85001,199.86 -10,1.17999 3.64999,-3.46998 -0.59,-5 z" /><path
             id="path128"
             style="fill:none;stroke:#67ab9f;stroke-width:1;stroke-linecap:butt;stroke-linejoin:miter;stroke-miterlimit:10;stroke-dasharray:none;stroke-opacity:1"
             d="m 507.85001,199.86 -10,1.17999 3.64999,-3.46998 -0.59,-5 z" /></g><g
           transform="scale(2.9911964)"
           id="g130"><text
             id="text134"
             style="font-variant:normal;font-weight:normal;font-size:23px;font-family:Helvetica;-inkscape-font-specification:Helvetica;writing-mode:lr-tb;fill:#666666;fill-opacity:1;fill-rule:nonzero;stroke:none"
             transform="translate(525.51563,249)"><tspan
               id="tspan132"
               y="0"
               x="0 12.791504 17.901367 30.692871 42.192871 48.583008 61.374512 66.484375 71.594238 83.094238 89.484375 102.27588 115.06738 127.85889 135.51807 141.9082 148.29834 154.68848 167.47998 172.58984 177.69971 190.49121 198.15039">diastolic heart failure</tspan></text>
</g><g
           transform="matrix(2.9911964,0,0,2.9911964,1.4955982,1.4955982)"
           id="g136"><path
             id="path138"
             style="fill:#67ab9f;fill-opacity:1;fill-rule:nonzero;stroke:none"
             d="m 421.92096,169.81602 7.10388,5.52584 -1.84192,2.36795 -7.10388,-5.52583 m 16.04968,8.6837 7.10392,5.52583 -1.84192,2.36795 -7.10392,-5.52583 m 16.04972,8.6837 7.10388,5.52583 -1.84192,2.36795 -7.10388,-5.52583 m 16.04971,8.6837 7.10388,5.52583 -1.84192,2.36795 -7.10388,-5.52583 m 16.04969,8.6837 7.10388,5.52583 -1.84192,2.36795 -7.10388,-5.52583 m 16.04968,8.6837 7.10391,5.52583 -1.84192,2.36795 -7.10391,-5.52583" /><path
             id="path140"
             style="fill:#67ab9f;fill-opacity:1;fill-rule:nonzero;stroke:none"
             d="m 508.35001,238.94 -9.86002,-1.97 4.53,-2.17 0.99002,-4.94 z" /><path
             id="path142"
             style="fill:none;stroke:#67ab9f;stroke-width:1;stroke-linecap:butt;stroke-linejoin:miter;stroke-miterlimit:10;stroke-dasharray:none;stroke-opacity:1"
             d="m 508.35001,238.94 -9.86002,-1.97 4.53,-2.17 0.99002,-4.94 z" /></g></g></g></g></svg>